<?xml version="1.0" encoding="iso-8859-1"?>
<!-- Generator: Adobe Illustrator 16.0.0, SVG Export Plug-In . SVG Version: 6.00 Build 0)  -->
<!DOCTYPE svg PUBLIC "-//W3C//DTD SVG 1.1//EN" "http://www.w3.org/Graphics/SVG/1.1/DTD/svg11.dtd">
<svg version="1.1" id="Capa_1" xmlns="http://www.w3.org/2000/svg" xmlns:xlink="http://www.w3.org/1999/xlink" x="0px" y="0px"
	 width="62.75px" height="62.75px" viewBox="0 0 62.75 62.75" style="enable-background:new 0 0 62.75 62.75;" xml:space="preserve"
	>
<g>
	<path d="M57.494,39.626c0.354-0.396,0.339-1-0.037-1.375c-6.966-6.967-15.239-10.499-24.589-10.499
		c-15.788,0-28.927,9.989-29.479,10.414C3.161,38.342,3.02,38.607,3,38.895s0.087,0.567,0.291,0.771
		c8.389,8.39,17.383,12.644,26.733,12.644C45.917,52.307,57.028,40.145,57.494,39.626z M30.025,50.307
		c-8.492,0-16.721-3.776-24.476-11.229c3.257-2.243,14.553-9.326,27.318-9.326c8.486,0,16.042,3.103,22.469,9.226
		C52.751,41.528,42.917,50.307,30.025,50.307z"/>
	<path d="M21.02,40.029c0,5.158,4.197,9.355,9.355,9.355s9.354-4.197,9.354-9.355s-4.195-9.355-9.354-9.355
		S21.02,34.87,21.02,40.029z"/>
	<path d="M24.62,18.239c6.618,0,11.474,2.477,15.881,5.013c0.938,0.541,2.095,1.256,3.369,2.043
		c4.102,2.537,9.207,5.694,12.636,6.561c0.494,0.125,1.396,0.27,2.318,0.27c0.822,0,1.442-0.117,1.895-0.355
		c0.888-0.471,2.022-2.02,2.032-3.088c0.008-0.918-0.743-1.833-1.581-2.767l-0.167-0.188c-1.731-1.974-5.491-5.129-7.451-6.425
		c-8.893-5.879-17.592-8.86-25.854-8.86c-17.639,0-27.123,13.305-27.518,13.872c-0.267,0.383-0.233,0.899,0.081,1.245
		c0.314,0.346,0.825,0.429,1.231,0.198C10.449,20.698,18.014,18.239,24.62,18.239z"/>
</g>
<g>
</g>
<g>
</g>
<g>
</g>
<g>
</g>
<g>
</g>
<g>
</g>
<g>
</g>
<g>
</g>
<g>
</g>
<g>
</g>
<g>
</g>
<g>
</g>
<g>
</g>
<g>
</g>
<g>
</g>
</svg>
